<svg id="图层_1" data-name="图层 1" xmlns="http://www.w3.org/2000/svg" viewBox="0 0 451.39 98.68"><defs><style>.cls-1{fill:#f5c443;}</style></defs><title>worklogo</title><rect class="cls-1" y="87.57" width="451.39" height="11.11"/><rect class="cls-1" y="71.78" width="451.39" height="11.11"/><path d="M250.38,257.9h12.7l26.4,53,26.5-53h14.4v1.4c-9.3.9-10.2,1.9-9.8,11.9l.7,35.5c.3,10.3.7,11.6,10.1,12.4v1.4h-24.5v-1.4c8.8-.7,9.1-2,9-12.4l-.4-42h-.4L288,319.4h-.9l-24.6-51.3h-.2l-1.3,27c-.3,4.7-.4,8.1-.4,10.8,0,9.6,1,12.3,10.3,13.2v1.4h-24.1v-1.4c6.2-.5,8.3-2.2,9.1-6.2.7-3,1.5-9,2.2-19.3l1.4-18.3c.1-2.7.2-4.9.2-6.7,0-7.1-1.7-8.4-9.3-9.3Z" transform="translate(-219.78 -251.5)"/><path d="M334.18,278.9h18.3v1.4c-3.5.7-5.2,1.3-5.2,3.3a6,6,0,0,0,.7,2.5l10.8,26.6c1.5-3.1,11.2-23.6,11.2-28.6,0-2.6-1.7-3.2-5.8-3.8v-1.4h18.7v1.4c-5.6.7-6,1.9-9.1,7.2-3,5.1-6.6,13.3-14.9,30.4-7.3,15-10,20.7-11.4,26a2.76,2.76,0,0,1-2.9,2,4.49,4.49,0,0,1-4.5-4.1c0-1.4,1.1-2.1,2.5-3.1,7.3-5,12.3-18.2,12.3-19.3s-5.9-17.7-11.6-31.5c-2.2-5.1-2.9-6.6-9.1-7.6Z" transform="translate(-219.78 -251.5)"/><path d="M447.78,270.1c-6.7,18.2-12.7,35-18.6,51.5h-1.3c-5-17.4-10.9-35.1-16.1-52.4-2.1-7.5-3.7-9.1-9.9-9.9v-1.4h21.7v1.4c-5.2.9-7.6,1.5-7.6,4.3a8.31,8.31,0,0,0,.6,2.8c4.1,13.9,8.9,29.1,13.6,44.5h.2c6.2-18,12.7-35.1,18.8-51.8h1.1c5.4,16.7,11.2,33.2,17.3,51.7h.2c5.1-14.1,12.6-36.3,14-43.4a21.93,21.93,0,0,0,.4-3.1c0-3.2-2.1-4-7.3-5v-1.4h20.9v1.4c-6.3,1-7.3,2.4-10.3,9.7-3.6,9.2-9.4,25.7-18.4,52.6h-1.4c-5.3-16.7-13.8-41-17.7-51.5Z" transform="translate(-219.78 -251.5)"/><path d="M545.68,298.9a22.27,22.27,0,0,1-22,22.7c-13.2,0-22.2-10-22.2-20.9,0-16.2,13.61-22.9,22-22.9C536.08,277.8,545.68,287.3,545.68,298.9Zm-37.91-1.5c0,12.8,6.7,21.9,17.31,21.9,8.4,0,14.5-5.4,14.5-18.9,0-9.7-5.9-20.2-17-20.2C513.38,280.2,507.77,287.4,507.77,297.4Z" transform="translate(-219.78 -251.5)"/><path d="M553.07,319.1c6.1-.4,7.1-1.8,7.1-8.1V291.4c0-7.3-.7-7.9-6.9-8.6v-1.2a34.93,34.93,0,0,0,11.7-4.2v12.2h.2c2.4-5.4,7.8-11.8,12.7-11.8a4.91,4.91,0,0,1,4.9,4.2,4.05,4.05,0,0,1-3.5,3.7.87.87,0,0,1-.9-.5c-1.5-1.4-2.3-2.1-4.2-2.1-2.7,0-6.6,4.5-9.2,11.8v16.3c0,6.2.9,7.5,8.9,7.9v1.4h-20.8Z" transform="translate(-219.78 -251.5)"/><path d="M584.77,319.1c6.9-.4,7.9-1.8,7.9-8.3V264.5c0-6.7-.7-7.7-7.4-8.4v-1.2a46.83,46.83,0,0,0,12.2-3.4v46.3c4.2-1.1,5.6-1.8,7-3,4.2-3.7,9.6-11,9.6-12.3,0-1-1.3-1.4-4.2-1.8v-1.5l19.6-.9v1.6c-7.4,1.2-10.1,2-22.8,16.4,2.2,2.8,13.5,15,16.7,17.5,4.51,3.9,6.6,5.6,9.6,5.3v1.4l-10.4.2c-5.8-5.4-12.7-13.6-18.4-19.1-1.6-1.7-3-2.5-4.3-2.5a6.91,6.91,0,0,0-2.4.6v11.1c0,6.5,1,7.9,7.8,8.3v1.4h-20.5Z" transform="translate(-219.78 -251.5)"/></svg>