<svg id="SvgjsSvg1138" width="580" height="389" xmlns="http://www.w3.org/2000/svg" version="1.1" xmlns:xlink="http://www.w3.org/1999/xlink" xmlns:svgjs="http://svgjs.com/svgjs"><defs id="SvgjsDefs1139"><marker id="SvgjsMarker1166" markerWidth="16" markerHeight="12" refX="16" refY="6" viewBox="0 0 16 12" orient="auto" markerUnits="userSpaceOnUse" stroke-dasharray="0,0"><path id="SvgjsPath1167" d="M0,2 L14,6 L0,11 L0,2" fill="#323232" stroke="#323232" stroke-width="2"></path></marker><marker id="SvgjsMarker1178" markerWidth="16" markerHeight="12" refX="16" refY="6" viewBox="0 0 16 12" orient="auto" markerUnits="userSpaceOnUse" stroke-dasharray="0,0"><path id="SvgjsPath1179" d="M0,2 L14,6 L0,11 L0,2" fill="#323232" stroke="#323232" stroke-width="2"></path></marker><marker id="SvgjsMarker1186" markerWidth="16" markerHeight="12" refX="16" refY="6" viewBox="0 0 16 12" orient="auto" markerUnits="userSpaceOnUse" stroke-dasharray="0,0"><path id="SvgjsPath1187" d="M0,2 L14,6 L0,11 L0,2" fill="#323232" stroke="#323232" stroke-width="2"></path></marker><marker id="SvgjsMarker1194" markerWidth="16" markerHeight="12" refX="16" refY="6" viewBox="0 0 16 12" orient="auto" markerUnits="userSpaceOnUse" stroke-dasharray="0,0"><path id="SvgjsPath1195" d="M0,2 L14,6 L0,11 L0,2" fill="#323232" stroke="#323232" stroke-width="2"></path></marker><marker id="SvgjsMarker1198" markerWidth="16" markerHeight="12" refX="16" refY="6" viewBox="0 0 16 12" orient="auto" markerUnits="userSpaceOnUse" stroke-dasharray="0,0"><path id="SvgjsPath1199" d="M0,2 L14,6 L0,11 L0,2" fill="#323232" stroke="#323232" stroke-width="2"></path></marker><marker id="SvgjsMarker1202" markerWidth="16" markerHeight="12" refX="16" refY="6" viewBox="0 0 16 12" orient="auto" markerUnits="userSpaceOnUse" stroke-dasharray="0,0"><path id="SvgjsPath1203" d="M0,2 L14,6 L0,11 L0,2" fill="#323232" stroke="#323232" stroke-width="2"></path></marker><marker id="SvgjsMarker1256" markerWidth="16" markerHeight="12" refX="16" refY="6" viewBox="0 0 16 12" orient="auto" markerUnits="userSpaceOnUse" stroke-dasharray="0,0"><path id="SvgjsPath1257" d="M0,2 L14,6 L0,11 L0,2" fill="#323232" stroke="#323232" stroke-width="2"></path></marker><marker id="SvgjsMarker1264" markerWidth="16" markerHeight="12" refX="16" refY="6" viewBox="0 0 16 12" orient="auto" markerUnits="userSpaceOnUse" stroke-dasharray="0,0"><path id="SvgjsPath1265" d="M0,2 L14,6 L0,11 L0,2" fill="#323232" stroke="#323232" stroke-width="2"></path></marker></defs><g id="SvgjsG1140" transform="translate(64,157)"><path id="SvgjsPath1141" d="M 0 35C 0 -11.666666666666666 70 -11.666666666666666 70 35C 70 81.66666666666667 0 81.66666666666667 0 35Z" stroke="rgba(50,50,50,1)" stroke-width="2" fill-opacity="1" fill="#ffffff"></path><g id="SvgjsG1142"><text id="SvgjsText1143" font-family="微软雅黑" text-anchor="middle" font-size="13px" width="50px" fill="#323232" font-weight="400" align="middle" anchor="middle" family="微软雅黑" size="13px" weight="400" font-style="" opacity="1" y="17.05" transform="rotate(0)"><tspan id="SvgjsTspan1144" dy="16" x="35"><tspan id="SvgjsTspan1145" style="text-decoration:;">Ball</tspan></tspan><tspan id="SvgjsTspan1146" dy="16" x="35"><tspan id="SvgjsTspan1147" style="text-decoration:;">Launch</tspan></tspan></text></g></g><g id="SvgjsG1148" transform="translate(198,157)"><path id="SvgjsPath1149" d="M 0 35C 0 -11.666666666666666 70 -11.666666666666666 70 35C 70 81.66666666666667 0 81.66666666666667 0 35Z" stroke="rgba(50,50,50,1)" stroke-width="2" fill-opacity="1" fill="#ffffff"></path><g id="SvgjsG1150"><text id="SvgjsText1151" font-family="微软雅黑" text-anchor="middle" font-size="13px" width="50px" fill="#323232" font-weight="400" align="middle" anchor="middle" family="微软雅黑" size="13px" weight="400" font-style="" opacity="1" y="17.05" transform="rotate(0)"><tspan id="SvgjsTspan1152" dy="16" x="35"><tspan id="SvgjsTspan1153" style="text-decoration:;">Game</tspan></tspan><tspan id="SvgjsTspan1154" dy="16" x="35"><tspan id="SvgjsTspan1155" style="text-decoration:;">Play...</tspan></tspan></text></g></g><g id="SvgjsG1156" transform="translate(485,157)"><path id="SvgjsPath1157" d="M 0 35C 0 -11.666666666666666 70 -11.666666666666666 70 35C 70 81.66666666666667 0 81.66666666666667 0 35Z" stroke="rgba(50,50,50,1)" stroke-width="2" fill-opacity="1" fill="#ffffff"></path><g id="SvgjsG1158"><text id="SvgjsText1159" font-family="微软雅黑" text-anchor="middle" font-size="13px" width="50px" fill="#323232" font-weight="400" align="middle" anchor="middle" family="微软雅黑" size="13px" weight="400" font-style="" opacity="1" y="17.05" transform="rotate(0)"><tspan id="SvgjsTspan1160" dy="16" x="35"><tspan id="SvgjsTspan1161" style="text-decoration:;">Game</tspan></tspan><tspan id="SvgjsTspan1162" dy="16" x="35"><tspan id="SvgjsTspan1163" style="text-decoration:;">Over</tspan></tspan></text></g></g><g id="SvgjsG1164"><path id="SvgjsPath1165" d="M520 227L520 304L99 304L99 227" stroke="#323232" stroke-width="2" fill="none" marker-end="url(#SvgjsMarker1166)"></path></g><g id="SvgjsG1168" transform="translate(309,152)"><path id="SvgjsPath1169" d="M 0 40L 60 0L 120 40L 60 80Z" stroke="rgba(50,50,50,1)" stroke-width="2" fill-opacity="1" fill="#ffffff"></path><g id="SvgjsG1170"><text id="SvgjsText1171" font-family="微软雅黑" text-anchor="middle" font-size="13px" width="100px" fill="#323232" font-weight="400" align="middle" anchor="middle" family="微软雅黑" size="13px" weight="400" font-style="" opacity="1" y="22.45" transform="rotate(0)"><tspan id="SvgjsTspan1172" dy="16" x="60"><tspan id="SvgjsTspan1173" style="text-decoration:;">Ball falling from </tspan></tspan><tspan id="SvgjsTspan1174" dy="16" x="60"><tspan id="SvgjsTspan1175" style="text-decoration:;">the board?</tspan></tspan></text></g></g><g id="SvgjsG1176"><path id="SvgjsPath1177" d="M369 152L369 122L233 122L233 157" stroke="#323232" stroke-width="2" fill="none" marker-end="url(#SvgjsMarker1178)"></path><rect id="SvgjsRect1180" width="11" height="16" x="293" y="114" fill="#ffffff"></rect><text id="SvgjsText1181" font-family="微软雅黑" text-anchor="middle" font-size="13px" width="11px" fill="#323232" font-weight="400" align="top" anchor="middle" family="微软雅黑" size="13px" weight="400" font-style="" opacity="1" y="112.05" transform="rotate(0)"><tspan id="SvgjsTspan1182" dy="16" x="298.5"><tspan id="SvgjsTspan1183" style="text-decoration:;">N</tspan></tspan></text></g><g id="SvgjsG1184"><path id="SvgjsPath1185" d="M429 192L457 192L457 192L485 192" stroke="#323232" stroke-width="2" fill="none" marker-end="url(#SvgjsMarker1186)"></path><rect id="SvgjsRect1188" width="8" height="16" x="453" y="184" fill="#ffffff"></rect><text id="SvgjsText1189" font-family="微软雅黑" text-anchor="middle" font-size="13px" width="8px" fill="#323232" font-weight="400" align="top" anchor="middle" family="微软雅黑" size="13px" weight="400" font-style="" opacity="1" y="182.05" transform="rotate(0)"><tspan id="SvgjsTspan1190" dy="16" x="457"><tspan id="SvgjsTspan1191" style="text-decoration:;">Y</tspan></tspan></text></g><g id="SvgjsG1192"><path id="SvgjsPath1193" d="M268 192L288.5 192L288.5 192L309 192" stroke="#323232" stroke-width="2" fill="none" marker-end="url(#SvgjsMarker1194)"></path></g><g id="SvgjsG1196"><path id="SvgjsPath1197" d="M134 192L166 192L166 192L198 192" stroke="#323232" stroke-width="2" fill="none" marker-end="url(#SvgjsMarker1198)"></path></g><g id="SvgjsG1200"><path id="SvgjsPath1201" d="M198 192L177 192L177 265L290 265L290 192L268 192" stroke="#323232" stroke-width="2" fill="none" marker-end="url(#SvgjsMarker1202)"></path></g><g id="SvgjsG1204" transform="translate(177,244)"><path id="SvgjsPath1205" d="M 0 0L 106 0L 106 37L 0 37Z" stroke="none" fill="none"></path><g id="SvgjsG1206"><text id="SvgjsText1207" font-family="微软雅黑" text-anchor="middle" font-size="13px" width="106px" fill="#323232" font-weight="400" align="middle" anchor="middle" family="微软雅黑" size="13px" weight="400" font-style="" opacity="1" y="-15.45" transform="rotate(0)"><tspan id="SvgjsTspan1208" dy="16" x="53"><tspan id="SvgjsTspan1209" style="text-decoration:;">Update score </tspan></tspan><tspan id="SvgjsTspan1210" dy="16" x="53"><tspan id="SvgjsTspan1211" style="text-decoration:;">from each </tspan></tspan><tspan id="SvgjsTspan1212" dy="16" x="53"><tspan id="SvgjsTspan1213" style="text-decoration:;">component</tspan></tspan><tspan id="SvgjsTspan1214" dy="16" x="53"><tspan id="SvgjsTspan1215" style="text-decoration:;"> </tspan></tspan></text></g></g><g id="SvgjsG1216" transform="translate(170,269)"><path id="SvgjsPath1217" d="M 0 0L 120 0L 120 40L 0 40Z" stroke="none" fill="none"></path><g id="SvgjsG1218"><text id="SvgjsText1219" font-family="Impact" text-anchor="middle" font-size="13px" width="120px" fill="#323232" font-weight="400" align="middle" anchor="middle" family="Impact" size="13px" weight="400" font-style="" opacity="1" y="10.05" transform="rotate(0)"><tspan id="SvgjsTspan1220" dy="16" x="60"><tspan id="SvgjsTspan1221" style="text-decoration:;">Score++</tspan></tspan></text></g></g><g id="SvgjsG1222" transform="translate(207.5,300)"><path id="SvgjsPath1223" d="M 0 0L 209 0L 209 38L 0 38Z" stroke="none" fill="none"></path><g id="SvgjsG1224"><text id="SvgjsText1225" font-family="微软雅黑" text-anchor="middle" font-size="13px" width="209px" fill="#323232" font-weight="400" align="middle" anchor="middle" family="微软雅黑" size="13px" weight="400" font-style="" opacity="1" y="9.05" transform="rotate(0)"><tspan id="SvgjsTspan1226" dy="16" x="104.5"><tspan id="SvgjsTspan1227" style="text-decoration:;">"Stop" &amp; Restart the ball</tspan></tspan></text></g></g><g id="SvgjsG1228" transform="translate(249,324)"><path id="SvgjsPath1229" d="M 0 0L 120 0L 120 40L 0 40Z" stroke="none" fill="none"></path><g id="SvgjsG1230"><text id="SvgjsText1231" font-family="Impact" text-anchor="middle" font-size="13px" width="120px" fill="#323232" font-weight="400" align="middle" anchor="middle" family="Impact" size="13px" weight="400" font-style="" opacity="1" y="2.05" transform="rotate(0)"><tspan id="SvgjsTspan1232" dy="16" x="60"><tspan id="SvgjsTspan1233" style="text-decoration:;">Score=0</tspan></tspan><tspan id="SvgjsTspan1234" dy="16" x="60"><tspan id="SvgjsTspan1235" style="text-decoration:;">Update BS</tspan></tspan></text></g></g><g id="SvgjsG1236" transform="translate(120.5,157)"><path id="SvgjsPath1237" d="M 0 0L 77.5 0L 77.5 40L 0 40Z" stroke="none" fill="none"></path><g id="SvgjsG1238"><text id="SvgjsText1239" font-family="微软雅黑" text-anchor="middle" font-size="13px" width="78px" fill="#323232" font-weight="400" align="middle" anchor="middle" family="微软雅黑" size="13px" weight="400" font-style="" opacity="1" y="10.05" transform="rotate(0)"><tspan id="SvgjsTspan1240" dy="16" x="39"><tspan id="SvgjsTspan1241" style="text-decoration:;">"Start"</tspan></tspan></text></g></g><g id="SvgjsG1242" transform="translate(391,148)"><path id="SvgjsPath1243" d="M 0 0L 120 0L 120 40L 0 40Z" stroke="none" fill="none"></path><g id="SvgjsG1244"><text id="SvgjsText1245" font-family="Impact" text-anchor="middle" font-size="13px" width="120px" fill="#323232" font-weight="400" align="middle" anchor="middle" family="Impact" size="13px" weight="400" font-style="" opacity="1" y="10.05" transform="rotate(0)"><tspan id="SvgjsTspan1246" dy="16" x="60"><tspan id="SvgjsTspan1247" style="text-decoration:;">Stop Scoring</tspan></tspan></text></g></g><g id="SvgjsG1248" transform="translate(64,25)"><path id="SvgjsPath1249" d="M 0 35C 0 -11.666666666666666 70 -11.666666666666666 70 35C 70 81.66666666666667 0 81.66666666666667 0 35Z" stroke="rgba(50,50,50,1)" stroke-width="2" fill-opacity="1" fill="#ffffff"></path><g id="SvgjsG1250"><text id="SvgjsText1251" font-family="微软雅黑" text-anchor="middle" font-size="12px" width="50px" fill="#323232" font-weight="400" align="middle" anchor="middle" family="微软雅黑" size="12px" weight="400" font-style="" opacity="1" y="25.7" transform="rotate(0)"><tspan id="SvgjsTspan1252" dy="15" x="35"><tspan id="SvgjsTspan1253" style="text-decoration:;">Connect</tspan></tspan></text></g></g><g id="SvgjsG1254"><path id="SvgjsPath1255" d="M99 95L99 126L99 126L99 157" stroke="#323232" stroke-width="2" fill="none" marker-end="url(#SvgjsMarker1256)"></path><rect id="SvgjsRect1258" width="8" height="16" x="95" y="118" fill="#ffffff"></rect><text id="SvgjsText1259" font-family="微软雅黑" text-anchor="middle" font-size="13px" width="8px" fill="#323232" font-weight="400" align="top" anchor="middle" family="微软雅黑" size="13px" weight="400" font-style="" opacity="1" y="116.05" transform="rotate(0)"><tspan id="SvgjsTspan1260" dy="16" x="99"><tspan id="SvgjsTspan1261" style="text-decoration:;">Y</tspan></tspan></text></g><g id="SvgjsG1262"><path id="SvgjsPath1263" d="M99 95L99 104L25 104L25 60L64 60" stroke="#323232" stroke-width="2" fill="none" marker-end="url(#SvgjsMarker1264)"></path><rect id="SvgjsRect1266" width="11" height="16" x="19.5" y="96" fill="#ffffff"></rect><text id="SvgjsText1267" font-family="微软雅黑" text-anchor="middle" font-size="13px" width="11px" fill="#323232" font-weight="400" align="top" anchor="middle" family="微软雅黑" size="13px" weight="400" font-style="" opacity="1" y="94.05" transform="rotate(0)"><tspan id="SvgjsTspan1268" dy="16" x="25"><tspan id="SvgjsTspan1269" style="text-decoration:;">N</tspan></tspan></text></g></svg>