<?xml version="1.0" encoding="utf-8"?>
<!-- Generator: Adobe Illustrator 24.0.1, SVG Export Plug-In . SVG Version: 6.00 Build 0)  -->
<svg version="1.1" id="图层_1" xmlns="http://www.w3.org/2000/svg" xmlns:xlink="http://www.w3.org/1999/xlink" x="0px" y="0px"
	 viewBox="0 0 484.1 101.9" style="enable-background:new 0 0 484.1 101.9;" xml:space="preserve">
<style type="text/css">
	.st0{fill:#1F84FF;}
	.st1{fill:none;stroke:#181919;stroke-width:8;stroke-miterlimit:10;}
</style>
<g>
	<path class="st0" d="M133.8,20.5h12.6v66.8h-12.6V20.5z M139.6,49.3h21.4c1.5,0,2.8-0.3,4-1c1.1-0.7,2-1.7,2.7-2.9
		c0.6-1.3,1-2.7,1-4.3c0-1.7-0.3-3.1-0.9-4.4c-0.6-1.3-1.5-2.3-2.7-2.9c-1.1-0.7-2.5-1-4-1h-21.4V20.5h21c4.2,0,7.8,0.8,11,2.5
		c3.2,1.7,5.6,4.1,7.4,7.2c1.7,3.1,2.6,6.7,2.6,10.7c0,4.1-0.9,7.6-2.6,10.7c-1.7,3.1-4.2,5.5-7.4,7.1c-3.2,1.7-6.8,2.5-11,2.5h-21
		V49.3z"/>
	<path class="st0" d="M195.4,85.6c-3.1-1.6-5.4-4-7-7.1s-2.4-6.8-2.4-11.2v-7.8c0-4.3,0.8-8,2.4-11.1c1.6-3.1,3.9-5.4,7-7
		c3.1-1.6,6.8-2.4,11.1-2.4c4.3,0,8.1,0.8,11.1,2.4s5.4,3.9,7,7c1.6,3.1,2.4,6.8,2.4,11.1v7.9c0,4.3-0.8,8.1-2.4,11.1
		c-1.6,3.1-3.9,5.4-7,7c-3.1,1.6-6.8,2.4-11.1,2.4C202.2,88,198.4,87.2,195.4,85.6z M212.4,73.7c1.4-1.5,2.1-3.6,2.1-6.3v-7.9
		c0-2.7-0.7-4.7-2.1-6.2c-1.4-1.5-3.4-2.2-5.9-2.2c-2.5,0-4.5,0.7-5.9,2.2c-1.4,1.5-2.1,3.5-2.1,6.2v7.9c0,2.7,0.7,4.8,2.1,6.3
		c1.4,1.5,3.3,2.2,5.9,2.2C209,75.9,211,75.1,212.4,73.7z"/>
	<path class="st0" d="M238.6,39.7h13.5v47.7h-13.5V39.7z M263.1,51.5c-0.9-0.3-1.9-0.5-3.1-0.5c-2.5,0-4.5,0.8-5.9,2.5
		c-1.4,1.6-2.1,3.9-2.1,6.8l-1-12.4c1.3-2.8,3-5.1,5.1-6.6c2.1-1.6,4.4-2.4,6.9-2.4c2,0,3.8,0.3,5.4,0.9c1.6,0.6,3,1.6,4.2,2.8
		l-7.3,10.2C264.8,52.3,264,51.9,263.1,51.5z"/>
	<path class="st0" d="M275,39.7h23.3v10.7H275V39.7z M282.9,84.4c-1.9-2.1-2.9-5.3-2.9-9.4V25.8h12.6v46c0,1.2,0.2,2.1,0.7,2.7
		c0.5,0.6,1.1,0.9,2,0.9h3.1v12.1H292C287.9,87.5,284.8,86.5,282.9,84.4z"/>
	<path class="st0" d="M305.7,39.7h25.7v10.7h-25.7V39.7z M310.8,33.2c0-4.2,1-7.4,2.9-9.5c1.9-2.1,4.9-3.1,9-3.1h8.7v11.2H326
		c-0.9,0-1.6,0.3-2,1c-0.5,0.7-0.7,1.5-0.7,2.6v51.9h-12.6V33.2z"/>
	<path class="st0" d="M345.9,85.6c-3.1-1.6-5.4-4-7-7.1c-1.6-3.1-2.4-6.8-2.4-11.2v-7.8c0-4.3,0.8-8,2.4-11.1c1.6-3.1,3.9-5.4,7-7
		c3.1-1.6,6.8-2.4,11.1-2.4c4.3,0,8.1,0.8,11.1,2.4c3.1,1.6,5.4,3.9,7,7c1.6,3.1,2.4,6.8,2.4,11.1v7.9c0,4.3-0.8,8.1-2.4,11.1
		c-1.6,3.1-3.9,5.4-7,7c-3.1,1.6-6.8,2.4-11.1,2.4C352.7,88,348.9,87.2,345.9,85.6z M362.9,73.7c1.4-1.5,2.1-3.6,2.1-6.3v-7.9
		c0-2.7-0.7-4.7-2.1-6.2c-1.4-1.5-3.4-2.2-5.9-2.2c-2.5,0-4.5,0.7-5.9,2.2c-1.4,1.5-2.1,3.5-2.1,6.2v7.9c0,2.7,0.7,4.8,2.1,6.3
		c1.4,1.5,3.3,2.2,5.9,2.2C359.5,75.9,361.5,75.1,362.9,73.7z"/>
	<path class="st0" d="M401.6,71.6c0,1.2,0.3,2.1,1,2.7c0.7,0.6,1.6,0.9,2.8,0.9h2.1v12.1h-6.4c-3.8,0-6.8-1.1-8.9-3.3
		s-3.2-5.3-3.2-9.3V20.5h12.6V71.6z"/>
	<path class="st0" d="M415.6,20.5h12.6v12.6h-12.6V20.5z M415.6,39.7h12.6v47.7h-12.6V39.7z"/>
	<path class="st0" d="M447.9,85.6c-3.1-1.6-5.4-4-7-7.1c-1.6-3.1-2.4-6.8-2.4-11.2v-7.8c0-4.3,0.8-8,2.4-11.1c1.6-3.1,3.9-5.4,7-7
		c3.1-1.6,6.8-2.4,11.1-2.4c4.3,0,8.1,0.8,11.1,2.4c3.1,1.6,5.4,3.9,7,7c1.6,3.1,2.4,6.8,2.4,11.1v7.9c0,4.3-0.8,8.1-2.4,11.1
		c-1.6,3.1-3.9,5.4-7,7c-3.1,1.6-6.8,2.4-11.1,2.4C454.7,88,451,87.2,447.9,85.6z M465,73.7c1.4-1.5,2.1-3.6,2.1-6.3v-7.9
		c0-2.7-0.7-4.7-2.1-6.2c-1.4-1.5-3.4-2.2-5.9-2.2c-2.5,0-4.5,0.7-5.9,2.2c-1.4,1.5-2.1,3.5-2.1,6.2v7.9c0,2.7,0.7,4.8,2.1,6.3
		c1.4,1.5,3.3,2.2,5.9,2.2C461.6,75.9,463.6,75.1,465,73.7z"/>
</g>
<g>
	<path d="M15.8,61.7l1.9,27.1c0.1,0.7,0,1.3-0.3,2c-0.9,2.3-2.8,3.4-5.7,3.4c-3.8,0-5.8-1.6-6-4.8l-2-32.1c0-0.4,0-0.7,0-0.9
		c0-1.8,0.8-3.2,2.4-4.2c1.1-0.7,2.3-1,3.7-1c2.3,0,3.9,0.7,4.9,2l59-3.6c0.2,0,0.6,0,1.1,0c3.2,0,5.5,0.9,6.8,2.8
		c1,1.5,1.5,3.7,1.5,6.7c0,8.1-0.6,16.5-1.8,25.1c-0.5,3.6-1.3,6.3-2.4,7.9c-1.3,1.9-3.2,2.8-5.8,2.8c-2.9,0-6.8-1-11.5-2.9
		c-3.2-1.3-4.9-2.8-4.9-4.5c0-2.2,1.1-3.2,3.2-3.2c0.5,0,1,0.1,1.7,0.2c1.5,0.3,3.1,0.5,4.8,0.5c1.5,0,2.5-1,2.9-3
		c1.1-4.6,1.6-11.3,1.6-20.1c0-1.6-0.2-2.7-0.7-3c-0.4-0.3-0.9-0.4-1.6-0.4L15.8,61.7z M47.6,15l26-1.8c0.2,0,0.3,0,0.4,0
		c1.7,0,3,0.7,3.8,2.2c0.4,0.8,0.6,1.7,0.6,2.7c0,2.7-1.3,4.2-4,4.4L9.7,26.9c-1.1,0.1-2-0.1-2.7-0.6c-1.4-0.8-2-2.1-2-3.9
		c0-2.9,1.4-4.5,4.1-4.7l26.2-1.9v-5.7c0-1.9,0.9-3.3,2.6-4.1c1.1-0.5,2.3-0.8,3.6-0.8c1.8,0,3.3,0.5,4.5,1.4c1.1,0.9,1.6,2,1.6,3.5
		V15z M64.4,39.7c1.3,0.6,2,1.7,2,3.3c0,2.2-1.2,3.3-3.6,3.5l-32.1,1.9c-1.1,1.2-2.8,1.9-5.4,1.9c-3.4,0-5.3-1.4-5.7-4.1l-2.1-12.8
		c0-0.2,0-0.5,0-0.8c0-1.6,0.8-2.9,2.4-3.7c1.1-0.6,2.4-0.9,3.8-0.9c2.1,0,3.7,0.5,4.8,1.4l29.6-2.4c0.5,0,1,0,1.4,0
		c4.3,0,6.5,1.8,6.5,5.4c0,1-0.2,2-0.5,3.1L64.4,39.7z M60.3,76.1c1.1,0.7,1.6,1.7,1.6,2.9c0,2.2-1.2,3.4-3.6,3.6L36,84
		c-0.8,2-2.5,3-5.3,3c-3.2,0-5-1.4-5.3-4.3l-1.6-14.2c0-0.3,0-0.5,0-0.6c0-1.6,0.8-2.8,2.5-3.6c0.9-0.4,2-0.6,3.2-0.6
		c1.6,0,3,0.4,4,1.2l21.1-1.6c0.5,0,1,0,1.4,0c4,0,6,1.6,6,4.8c0,0.7-0.1,1.4-0.3,2.2L60.3,76.1z M52.8,40.1l0.6-3.5
		c0.1-0.3,0.1-0.6,0.1-0.9c0-0.8-0.5-1.2-1.4-1.2c-0.1,0-0.4,0-0.8,0l-20.9,1.6l0.7,5.5L52.8,40.1z M50.4,76.2l0.6-4
		c0-0.2,0-0.3,0-0.6c0-0.8-0.5-1.2-1.4-1.2c-0.3,0-0.5,0-0.8,0l-13.8,1.1l0.5,5.6L50.4,76.2z"/>
</g>
<path class="st1" d="M85.5,21.9c0.7,0,3.5,0,4.6,1.7c1.5,2.2,0,6.9-5,10.5"/>
<path class="st1" d="M109,52.9c-12.6,2.5-15.8,4.6-15.7,6.2c0,3.4,14.7,4.5,14.9,8.4c0.2,2.9-7.6,5.7-15.5,8"/>
</svg>
