<?xml version="1.0" encoding="utf-8"?>
<!-- Generator: Adobe Illustrator 24.0.1, SVG Export Plug-In . SVG Version: 6.00 Build 0)  -->
<svg version="1.1" id="图层_1" xmlns="http://www.w3.org/2000/svg" xmlns:xlink="http://www.w3.org/1999/xlink" x="0px" y="0px"
	 viewBox="0 0 560 288" style="enable-background:new 0 0 560 288;" xml:space="preserve">
<g>
	<path d="M34.4,135.1h78v-30.7c0-14.4-1.5-17.2-17.4-18.5v-2.6h44.7v2.6c-16.3,1.3-17.7,4.1-17.7,18.5v73.5
		c0,14.6,1.5,17.4,17.2,18.5v2.6H93.5v-2.6c17.4-1.1,18.8-3.9,18.8-18.5v-37.1h-78v37.1c0,14.6,1.7,17.4,17.9,18.5v2.6H7.8v-2.6
		c15.5-1.1,17-3.9,17-18.5v-73.5C24.8,90,23.3,87.2,7,85.9v-2.6h44.3v2.6c-15.3,1.3-17,4.1-17,18.5V135.1z"/>
	<path d="M280.6,139.5c0,36.8-29.4,62.3-64.5,62.3c-33.8,0-61.1-24.9-61.1-59.1c0-31,24-62.1,65.2-62.1
		C251,80.6,280.6,103.7,280.6,139.5z M167.9,137.3c0,36,22.7,60,52.6,60c24.9,0,47.5-17.2,47.5-50.1c0-41.9-23.5-62.3-53.2-62.3
		C190.3,85.2,167.9,101.6,167.9,137.3z"/>
	<path d="M299.4,83.3h23.5l48.8,97.9l49-97.9h26.6v2.6c-17.2,1.7-18.8,3.5-18.1,22l1.3,65.6c0.6,19,1.3,21.4,18.7,22.9v2.6h-45.3
		v-2.6c16.3-1.3,16.8-3.7,16.6-22.9l-0.7-77.6h-0.7l-50.1,101h-1.7l-45.4-94.8h-0.4l-2.4,49.9c-0.6,8.7-0.7,15-0.7,20
		c0,17.7,1.8,22.7,19,24.4v2.6h-44.5v-2.6c11.5-0.9,15.3-4.1,16.8-11.5c1.3-5.5,2.8-16.6,4.1-35.7l2.6-33.8c0.2-5,0.4-9.1,0.4-12.4
		c0-13.1-3.1-15.5-17.2-17.2V83.3z"/>
	<path d="M460.5,196.4c17.4-0.9,18.7-4.1,18.7-18.3v-72.4c0-15.9-1.5-19-16.8-19.8v-2.6h80.4c0,6.5,0.9,17.4,1.7,28.3l-3.1,0.6
		c-3.9-18.8-7.4-24.4-29.7-24.4h-17.4c-5,0-5.2,0.4-5.2,5.2v43.2h21.6c14.6,0,18.1-1.8,20.9-14.2h3.1v34.4h-3.1
		c-3-14.2-6.8-15-20.9-15h-21.6v36c0,17.4,7.6,17.4,22.9,17.4c11.3,0,22.4-0.2,28.3-7c3-3.5,7.6-10,10.3-18.3h3.1
		c-1.7,6.8-5.2,23.3-6.7,29.6h-86.5V196.4z"/>
</g>
<g>
</g>
<g>
</g>
<g>
</g>
<g>
</g>
<g>
</g>
</svg>
