<?xml version="1.0" encoding="utf-8"?>
<!-- Generator: Adobe Illustrator 24.0.1, SVG Export Plug-In . SVG Version: 6.00 Build 0)  -->
<svg version="1.1" id="图层_1" xmlns="http://www.w3.org/2000/svg" xmlns:xlink="http://www.w3.org/1999/xlink" x="0px" y="0px"
	 viewBox="0 0 484.1 101.9" style="enable-background:new 0 0 484.1 101.9;" xml:space="preserve">
<style type="text/css">
	.st0{fill:none;stroke:#181919;stroke-width:5;stroke-miterlimit:10;}
	.st1{fill:none;stroke:#181919;stroke-width:6;stroke-miterlimit:10;}
</style>
<g>
	<path d="M123.3,79.3v-3.6c3.4-0.3,5.3-0.5,5.7-0.8c0.3-0.2,0.6-0.5,0.8-0.9c0.3-0.7,0.5-3.6,0.6-8.8c0.1-5.2,0.2-10.2,0.2-15
		c0-9-0.1-15.5-0.3-19.4c-0.2-3.9-0.5-6.1-0.9-6.5c-0.4-0.5-1.6-0.8-3.7-0.9l-2.5-0.2v-3.6l4.8,0.2c3,0.1,5.3,0.1,7.1,0.1
		c2.4,0,6.3-0.1,11.7-0.2c2.9-0.1,5-0.1,6.4-0.1c5.1,0,8.8,0.5,11.3,1.4c2.4,1,4.3,2.4,5.5,4.4c1.3,1.9,1.9,4.4,1.9,7.3
		c0,5.3-1.9,9.7-5.6,13.2c-3.7,3.5-8.5,5.3-14.2,5.3c-0.7,0-1.5-0.1-2.3-0.2c-0.8-0.1-1.7-0.3-2.6-0.5c-0.5-1-1-2-1.5-3l1-1.1
		c0.6,0.1,1.2,0.2,1.7,0.3c0.5,0.1,1,0.1,1.4,0.1c2.9,0,5.2-1,7-3c1.8-2,2.7-4.7,2.7-8.3c0-3.9-0.9-6.9-2.8-8.8
		c-1.9-1.9-4.6-2.9-8.3-2.9c-1.5,0-3.2,0.2-5.2,0.6c-0.3,8.7-0.4,16.1-0.4,22.2c0,2,0.1,8.5,0.3,19.5c0.1,4.3,0.2,6.8,0.4,7.5
		c0.1,0.5,0.4,0.8,0.8,1c0.6,0.3,3,0.6,7.2,0.9v3.6c-5-0.2-9.2-0.3-12.7-0.3C137.3,79,132.1,79.1,123.3,79.3z"/>
	<path d="M176.7,59c0-6.7,1.6-11.8,4.7-15.2c3.8-4,9.2-6,16.3-6c7.1,0,12.3,1.6,15.5,4.8c3.3,3.2,4.9,8.3,4.9,15.2
		c0,7.1-1.9,12.6-5.6,16.5c-3.8,3.9-9,5.8-15.7,5.8c-6.6,0-11.6-1.8-15-5.4C178.4,71.1,176.7,65.9,176.7,59z M188.5,56.1
		c0,7.6,1,13,2.9,16.2c1.5,2.5,3.8,3.7,6.8,3.7c2.6,0,4.7-1.1,6.1-3.2c1.4-2.1,2.1-5.9,2.1-11.5c0-7.6-0.9-12.9-2.6-15.8
		c-1.4-2.3-3.7-3.5-6.8-3.5c-2.6,0-4.7,1.1-6.2,3.2C189.2,47.4,188.5,51,188.5,56.1z"/>
	<path d="M222.5,79.3v-3.5c2.9-0.1,4.5-0.3,4.9-0.5c0.3-0.2,0.6-0.4,0.8-0.8c0.3-0.7,0.5-2.2,0.6-4.5c0.1-4.1,0.2-7.9,0.2-11.3
		c0-6.6-0.1-10.5-0.3-11.7c-0.1-0.7-0.3-1.2-0.8-1.5c-0.4-0.3-2.2-0.5-5.4-0.6v-3.3c5.7-0.5,9.8-1.2,12.3-2l4.4-1.6
		c0.4,0,0.6,0.3,0.6,0.8l0,0.6c-0.1,1.8-0.1,4.4-0.1,7.7c1.4-1.4,3-3.1,4.8-5.3c1.3-1.6,2.4-2.6,3.4-3.1c1-0.5,2.3-0.7,3.9-0.7
		c0.9,0,1.8,0.2,2.8,0.5c-0.3,2.8-0.4,6.7-0.5,11.6l-1.9,0.7c-0.7-1.1-1.4-1.9-2.1-2.3c-0.8-0.4-1.8-0.7-3-0.7
		c-1.7,0-3.2,0.4-4.4,1.3c-1.2,0.9-2,1.9-2.3,3c-0.2,0.9-0.3,3.8-0.3,8.7c0,7.2,0.1,11.4,0.3,12.6c0.1,0.8,0.4,1.3,0.8,1.6
		c0.7,0.4,2.8,0.7,6.4,0.9v3.5l-4.8-0.1c-3-0.1-5.7-0.1-7.9-0.1c-2.1,0-4.5,0-7.3,0.1L222.5,79.3z"/>
	<path d="M256.5,45.1l5.7-3.7c-0.1-5-0.2-9.4-0.4-13.2c3.9-1.2,7.5-2.6,11-4.3l1.3,1c-0.6,4.1-1,9.6-1.3,16.5
		c1.3,0.2,2.6,0.3,3.9,0.3c2.9,0,5.5-0.2,7.8-0.6l0.4,0.3l-0.4,1.5c-0.4,1.6-0.7,3-0.9,4.4c-3.3-0.2-5.8-0.3-7.3-0.3
		c-1.2,0-2.3,0.1-3.4,0.2c-0.1,2.9-0.1,5.4-0.1,7.6c0,9.5,0.3,15,0.9,16.3c0.6,1.3,1.9,2,4,2c0.6,0,1.3-0.1,2-0.2
		c0.7-0.1,1.5-0.3,2.3-0.6l0.7,1.6c-1.7,1.9-3.4,3.9-5,5.9c-1,0.2-2,0.3-2.9,0.4s-1.7,0.1-2.4,0.1c-2.4,0-4.4-0.4-6-1.2
		s-2.8-1.9-3.5-3.2c-0.7-1.3-1.1-3.3-1.1-5.8c0-1.4,0.1-4.9,0.2-10.7c0.1-5.1,0.2-9.1,0.2-12.1L260,47c-0.9,0-2.1,0.1-3.5,0.3V45.1z
		"/>
	<path d="M285.1,79.3v-3.5l2.6-0.2c1.7-0.1,2.8-0.4,3.3-0.8c0.4-0.5,0.7-1.6,0.8-3.5c0.2-4,0.3-8.7,0.3-14.3l-0.1-10.3
		c-2.8,0.1-5.1,0.3-7,0.4v-2.2l4.1-2.1l0.7-0.3l0.4-0.2l1.2-0.6v-4c0-3.2,0.4-5.5,1.1-7c0.7-1.4,2.7-3.6,5.8-6.4
		c4.3-3.9,6.9-6.1,8-6.8c1.8-1.2,4-1.7,6.6-1.7c0.8,0,1.6,0.1,2.5,0.2c0.9,0.2,1.7,0.4,2.6,0.7c-0.5,3.3-0.9,6.8-1.2,10.6l-1.7,0.3
		c-1.2-1.2-2.5-2.1-3.7-2.7c-1.2-0.6-2.4-0.9-3.6-0.9c-1.6,0-2.7,0.3-3.5,1c-0.8,0.7-1.3,1.9-1.5,3.5c-0.2,1.6-0.3,6-0.3,13h4.3
		c2.4,0,4.8-0.2,7.2-0.6l0.5,0.7c-0.5,1.6-0.8,3.4-1.1,5.2c-1.7-0.1-3.2-0.2-4.7-0.2h-6.3c0,12.3,0.1,20.4,0.3,24.1
		c0.1,2.1,0.4,3.4,0.9,3.9c0.7,0.6,3.2,1,7.6,1.2v3.5c-4.2-0.2-8.2-0.3-12-0.3C295.5,79,290.8,79.1,285.1,79.3z"/>
	<path d="M322,59c0-6.7,1.6-11.8,4.7-15.2c3.8-4,9.2-6,16.3-6c7.1,0,12.3,1.6,15.5,4.8c3.3,3.2,4.9,8.3,4.9,15.2
		c0,7.1-1.9,12.6-5.6,16.5c-3.8,3.9-9,5.8-15.7,5.8c-6.6,0-11.6-1.8-15-5.4S322,65.9,322,59z M333.7,56.1c0,7.6,1,13,2.9,16.2
		c1.5,2.5,3.8,3.7,6.8,3.7c2.6,0,4.7-1.1,6.1-3.2c1.4-2.1,2.1-5.9,2.1-11.5c0-7.6-0.9-12.9-2.6-15.8c-1.4-2.3-3.7-3.5-6.8-3.5
		c-2.6,0-4.7,1.1-6.2,3.2C334.5,47.4,333.7,51,333.7,56.1z"/>
	<path d="M369.3,22.2v-2.5c4-0.5,7.2-1.1,9.5-1.7s4.8-1.4,7.5-2.4l1.1,0.9c-0.4,10.1-0.6,24.3-0.6,42.5c0,3.7,0.1,7.4,0.2,11.1
		c0.1,2.4,0.2,3.8,0.4,4.2c0.2,0.4,0.5,0.7,1,0.9c0.5,0.2,2.1,0.4,5.1,0.5v3.5l-4.5-0.1c-2.8-0.1-5.1-0.1-7-0.1l-12.7,0.3v-3.5
		l3.1-0.2c1.4-0.1,2.3-0.3,2.7-0.8c0.4-0.5,0.7-2.3,0.7-5.3c0.1-4.3,0.2-10.4,0.2-18.3l0-18.2c0-5.5-0.2-8.7-0.5-9.4
		c-0.1-0.3-0.3-0.6-0.6-0.8C374.5,22.5,372.6,22.3,369.3,22.2z"/>
	<path d="M398.6,79.3v-3.5c3.2-0.1,5.1-0.3,5.6-0.6c0.5-0.3,0.8-1.1,1-2.4c0.2-1.8,0.3-5.7,0.3-11.8c0-2.6,0-5.1-0.1-7.3l-0.1-5
		c0-1.6-0.2-2.7-0.5-3c-0.4-0.4-1.3-0.6-2.9-0.7l-3.2-0.1v-3.3c6.8-0.5,12.5-1.7,16.9-3.7l1.1,0.9c-0.4,5.4-0.6,13.3-0.6,23.7
		c0,6,0.1,9.6,0.3,10.9c0.1,0.9,0.4,1.4,0.8,1.7c0.4,0.3,2.2,0.5,5.6,0.8v3.5c-5.1-0.2-9.1-0.3-11.9-0.3
		C409.2,79,405.2,79.1,398.6,79.3z M410.4,17.5c1.8,0,3.4,0.6,4.7,1.9c1.3,1.3,1.9,2.9,1.9,4.7c0,1.8-0.6,3.4-1.9,4.7
		c-1.3,1.3-2.9,1.9-4.7,1.9c-1.8,0-3.4-0.6-4.7-1.9c-1.3-1.3-1.9-2.8-1.9-4.7c0-1.8,0.6-3.4,1.9-4.7C407,18.2,408.6,17.5,410.4,17.5
		z"/>
	<path d="M428.4,59c0-6.7,1.6-11.8,4.7-15.2c3.8-4,9.2-6,16.3-6c7.1,0,12.3,1.6,15.5,4.8c3.3,3.2,4.9,8.3,4.9,15.2
		c0,7.1-1.9,12.6-5.6,16.5c-3.8,3.9-9,5.8-15.7,5.8c-6.6,0-11.6-1.8-15-5.4S428.4,65.9,428.4,59z M440.2,56.1c0,7.6,1,13,2.9,16.2
		c1.5,2.5,3.8,3.7,6.8,3.7c2.6,0,4.7-1.1,6.1-3.2c1.4-2.1,2.1-5.9,2.1-11.5c0-7.6-0.9-12.9-2.6-15.8c-1.4-2.3-3.7-3.5-6.8-3.5
		c-2.6,0-4.7,1.1-6.2,3.2C441,47.4,440.2,51,440.2,56.1z"/>
</g>
<g>
	<path d="M25.9,60.1l1.4,20c0,0.5,0,1-0.2,1.5c-0.6,1.7-2,2.5-4.2,2.5c-2.8,0-4.2-1.2-4.4-3.6L17,56.8c0-0.3,0-0.5,0-0.6
		c0-1.4,0.6-2.4,1.8-3.1c0.8-0.5,1.7-0.7,2.7-0.7c1.6,0,2.8,0.5,3.6,1.5l42.8-2.6c0.2,0,0.4,0,0.8,0c2.4,0,4,0.7,4.9,2
		c0.7,1.1,1.1,2.7,1.1,4.9c0,6-0.4,12.1-1.3,18.5c-0.4,2.7-0.9,4.6-1.8,5.8c-0.9,1.4-2.3,2.1-4.2,2.1c-2.1,0-4.9-0.7-8.4-2.1
		c-2.4-1-3.5-2.1-3.5-3.3c0-1.6,0.8-2.4,2.3-2.4c0.3,0,0.7,0.1,1.2,0.2c1.1,0.2,2.3,0.4,3.5,0.4c1.1,0,1.8-0.7,2.1-2.2
		c0.8-3.4,1.2-8.3,1.2-14.8c0-1.2-0.2-2-0.5-2.2c-0.3-0.2-0.7-0.3-1.2-0.3L25.9,60.1z M48.9,25.7l18.8-1.3c0.1,0,0.2,0,0.3,0
		c1.3,0,2.2,0.5,2.7,1.6c0.3,0.6,0.5,1.2,0.5,2c0,2-1,3.1-2.9,3.2l-46.9,3.2c-0.8,0-1.4-0.1-2-0.4c-1-0.6-1.5-1.5-1.5-2.8
		c0-2.2,1-3.3,3-3.5l19-1.4v-4.2c0-1.4,0.6-2.4,1.9-3c0.8-0.4,1.6-0.6,2.6-0.6c1.3,0,2.4,0.4,3.3,1.1c0.8,0.6,1.2,1.5,1.2,2.6V25.7z
		 M61.1,43.9c1,0.4,1.4,1.2,1.4,2.4c0,1.6-0.9,2.4-2.6,2.6l-23.3,1.4c-0.8,0.9-2.1,1.4-3.9,1.4c-2.5,0-3.8-1-4.2-3l-1.5-9.4
		c0-0.1,0-0.3,0-0.6c0-1.2,0.6-2.1,1.7-2.7c0.8-0.4,1.7-0.7,2.8-0.7c1.5,0,2.7,0.4,3.5,1.1l21.5-1.8c0.4,0,0.7,0,1.1,0
		c3.2,0,4.7,1.3,4.7,4c0,0.7-0.1,1.5-0.4,2.3L61.1,43.9z M58.1,70.7c0.8,0.5,1.2,1.2,1.2,2.2c0,1.6-0.9,2.5-2.6,2.6l-16.2,1
		c-0.6,1.5-1.8,2.2-3.8,2.2c-2.3,0-3.6-1.1-3.9-3.2l-1.2-10.5c0-0.2,0-0.4,0-0.5c0-1.2,0.6-2.1,1.8-2.6c0.7-0.3,1.4-0.5,2.3-0.5
		c1.2,0,2.1,0.3,2.9,0.9l15.3-1.2c0.4,0,0.7,0,1,0c2.9,0,4.4,1.2,4.4,3.6c0,0.5-0.1,1.1-0.2,1.6L58.1,70.7z M52.7,44.2l0.4-2.6
		c0-0.2,0.1-0.4,0.1-0.7c0-0.6-0.4-0.9-1.1-0.9c-0.1,0-0.3,0-0.6,0l-15.2,1.2l0.5,4.1L52.7,44.2z M51,70.8l0.5-2.9
		c0-0.1,0-0.3,0-0.4c0-0.6-0.3-0.9-1-0.9c-0.2,0-0.4,0-0.6,0l-10,0.8l0.4,4.1L51,70.8z"/>
</g>
<path class="st0" d="M80.5,21.8c0.5,0,2.5,0,3.4,1.2c1.1,1.6,0,5.1-3.6,7.7"/>
<path class="st1" d="M105.2,53.4c-14.1,2.9-17.6,5.2-17.6,7c0,3.8,16.4,5.1,16.6,9.6c0.2,3.3-8.4,6.5-17.3,9"/>
</svg>
